Coordinates
version=1
nRows=10
nColumns=63
inDegrees=yes

Units are S.I. units (second, meters, Newtons, ...)
If the header above contains a line with 'inDegrees', this indicates whether rotational values are in degrees (yes) or radians (no).

endheader
time	pelvis_tilt	pelvis_list	pelvis_rotation	pelvis_tx	pelvis_ty	pelvis_tz	hip_flexion_r	hip_adduction_r	hip_rotation_r	knee_angle_r	knee_angle_r_beta	ankle_angle_r	subtalar_angle_r	mtp_angle_r	hip_flexion_l	hip_adduction_l	hip_rotation_l	knee_angle_l	knee_angle_l_beta	ankle_angle_l	subtalar_angle_l	mtp_angle_l	L5_S1_Flex_Ext	L5_S1_Lat_Bending	L5_S1_axial_rotation	L4_L5_Flex_Ext	L4_L5_Lat_Bending	L4_L5_axial_rotation	L3_L4_Flex_Ext	L3_L4_Lat_Bending	L3_L4_axial_rotation	L2_L3_Flex_Ext	L2_L3_Lat_Bending	L2_L3_axial_rotation	L1_L2_Flex_Ext	L1_L2_Lat_Bending	L1_L2_axial_rotation	L1_T12_Flex_Ext	L1_T12_Lat_Bending	L1_T12_axial_rotation	Abs_r3	Abs_r2	Abs_r1	Abs_t1	Abs_t2	neck_flexion	neck_bending	neck_rotation	arm_flex_r	arm_add_r	arm_rot_r	elbow_flex_r	pro_sup_r	wrist_flex_r	wrist_dev_r	arm_flex_l	arm_add_l	arm_rot_l	elbow_flex_l	pro_sup_l	wrist_flex_l	wrist_dev_l
      0.00800000	    -52.68021013	      1.67003458	      3.12571573	     -0.36634590	      0.99267542	      0.02109617	     91.64781353	    -10.91086788	     -2.97775187	     55.30128525	      0.96518951	     -1.22564068	     -2.29749628	      0.00000000	    138.24337309	     -6.88284463	     -0.80393556	    107.03520485	      1.86811674	      3.33527200	      2.73917457	      0.00000000	     -0.08600965	     -0.15061094	     -0.50844853	     -0.15972853	     -0.20031255	     -0.54022657	     -0.14130526	     -0.36619544	     -0.54022657	     -0.09830043	     -0.36619544	     -0.44489247	     -0.07986856	     -0.30712583	     -0.41311443	     -0.04914592	     -0.23329635	     -0.38133640	     -0.61435835	     -1.70374109	     -2.82783821	      0.00000000	      0.00000000	     -0.00000000	      0.00000000	     -0.00000000	     69.96359291	     -9.10843128	      6.72031855	     37.80101000	     24.21532239	      0.00000000	      5.34585765	     73.28277665	     -9.71272434	     13.47215994	     33.50215741	     34.65372580	      0.00000000	      5.34585765
      0.01700000	    -52.90482405	      1.29133996	      2.60153070	     -0.36917840	      0.99248460	      0.02235394	     92.91416314	    -10.43404050	     -2.72800223	     58.84577675	      1.02705256	     -2.57859087	     -1.93104539	      0.00000000	    138.09564065	     -6.33794969	     -0.02589016	    104.29212491	      1.82024096	      3.16905273	      2.86736534	      0.00000000	     -0.08833906	     -0.11577470	     -0.42942866	     -0.16405447	     -0.15398035	     -0.45626795	     -0.14513224	     -0.28149459	     -0.45626795	     -0.10096271	     -0.28149459	     -0.37575008	     -0.08203165	     -0.23608776	     -0.34891078	     -0.05047694	     -0.17933500	     -0.32207149	     -0.63099707	     -1.30966651	     -2.38835336	      0.00000000	      0.00000000	     -0.00000000	      0.00000000	     -0.00000000	     70.51041961	     -8.95476999	      6.51417642	     37.71085996	     24.18340644	      0.00000000	      5.34226018	     73.96154137	     -9.44368452	     13.39535725	     33.14049816	     34.63005719	      0.00000000	      5.34226018
      0.02500000	    -52.99566469	      1.25355057	      2.49499247	     -0.36998365	      0.99230462	      0.02274468	     93.39069250	    -10.36817234	     -2.66373408	     59.98014680	      1.04685105	     -2.71209368	     -1.98649018	      0.00000000	    137.90458863	     -6.31530666	      0.04276226	    103.33183858	      1.80348081	      3.36260990	      2.67020740	      0.00000000	     -0.08504642	     -0.11729786	     -0.40506555	     -0.15793971	     -0.15600615	     -0.43038215	     -0.13972277	     -0.28519802	     -0.43038215	     -0.09719955	     -0.28519802	     -0.35443236	     -0.07897411	     -0.23919380	     -0.32911576	     -0.04859553	     -0.18169439	     -0.30379916	     -0.60747808	     -1.32689686	     -2.25285306	      0.00000000	      0.00000000	     -0.00000000	      0.00000000	     -0.00000000	     70.59161569	     -8.95276485	      6.37704645	     37.82158631	     24.66290239	      0.00000000	      5.32665341	     74.06521145	     -9.39212238	     13.34400591	     33.25988464	     34.88491871	      0.00000000	      5.32665341
      0.03300000	    -53.00810919	      1.14689410	      2.52825388	     -0.37070751	      0.99201140	      0.02301210	     93.96051318	    -10.39553686	     -2.72335615	     61.48761460	      1.07316132	     -3.60057978	     -3.66167628	      0.00000000	    137.59199436	     -6.18455401	      0.09476344	    102.23093898	      1.78426648	      3.41080962	      2.52726202	      0.00000000	     -0.08806069	     -0.11227929	     -0.40365829	     -0.16353752	     -0.14933146	     -0.42888693	     -0.14467492	     -0.27299587	     -0.42888693	     -0.10064457	     -0.27299587	     -0.35320100	     -0.08177316	     -0.22895993	     -0.32797236	     -0.05031788	     -0.17392062	     -0.30274372	     -0.62900874	     -1.27012579	     -2.24502632	      0.00000000	      0.00000000	     -0.00000000	      0.00000000	     -0.00000000	     70.71208558	     -8.95015705	      6.18565240	     37.71886605	     24.95498432	      0.00000000	      5.30089778	     74.28649940	     -9.26741684	     13.37369513	     32.98756089	     35.02612319	      0.00000000	      5.30089778
      0.04200000	    -53.02882950	      0.97789106	      2.24027053	     -0.37133033	      0.99152145	      0.02363722	     94.49404503	    -10.11990887	     -2.68042392	     63.08804493	      1.10109410	     -3.37895308	     -3.80588837	      0.00000000	    137.29019053	     -6.24290413	      0.38552965	    101.07460323	      1.76408462	      3.59565923	      2.23915859	      0.00000000	     -0.08750428	     -0.09729241	     -0.34212876	     -0.16250419	     -0.12939890	     -0.36351180	     -0.14376078	     -0.23655675	     -0.36351180	     -0.10000864	     -0.23655675	     -0.29936266	     -0.08125647	     -0.19839867	     -0.27797961	     -0.04999994	     -0.15070594	     -0.25659657	     -0.62503430	     -1.10059115	     -1.90281751	      0.00000000	      0.00000000	     -0.00000000	      0.00000000	     -0.00000000	     70.81172640	     -9.01000341	      6.11533446	     37.75810307	     25.40003256	      0.00000000	      5.28627610	     74.33902022	     -9.17916346	     13.34409248	     33.10182921	     35.25243335	      0.00000000	      5.28627610
      0.05000000	    -53.03627671	      0.70112512	      2.04811860	     -0.37197877	      0.99110192	      0.02410859	     95.09042775	     -9.93625874	     -2.90809891	     64.86288685	      1.13207094	     -3.89306965	     -5.36329661	      0.00000000	    136.87862657	     -6.18332243	      0.60563257	     99.68381463	      1.73981078	      3.62190780	      1.66965620	      0.00000000	     -0.08858250	     -0.06815347	     -0.29905616	     -0.16450656	     -0.09064411	     -0.31774717	     -0.14553219	     -0.16570834	     -0.31774717	     -0.10124094	     -0.16570834	     -0.26167414	     -0.08225771	     -0.13897855	     -0.24298313	     -0.05061604	     -0.10556972	     -0.22429212	     -0.63273593	     -0.77096567	     -1.66326066	      0.00000000	      0.00000000	     -0.00000000	      0.00000000	     -0.00000000	     70.99517539	     -9.13179628	      6.33636812	     37.66385490	     25.73094193	      0.00000000	      5.25783100	     74.42945079	     -9.04533559	     13.26135533	     33.03572442	     35.36114783	      0.00000000	      5.25783100
      0.05800000	    -53.03853969	      0.46889358	      1.64222771	     -0.37244998	      0.99056283	      0.02487904	     95.70776136	     -9.56041694	     -2.93033228	     66.76204232	      1.16521745	     -3.53745339	     -5.48180256	      0.00000000	    136.43184059	     -6.32942324	      0.98174709	     98.27200329	      1.71517002	      3.73811314	      1.47295439	      0.00000000	     -0.08814396	     -0.04367310	     -0.21604013	     -0.16369214	     -0.05808522	     -0.22954263	     -0.14481171	     -0.10618678	     -0.22954263	     -0.10073973	     -0.10618678	     -0.18903511	     -0.08185048	     -0.08905819	     -0.17553260	     -0.05036546	     -0.06764963	     -0.16203009	     -0.62960346	     -0.49403885	     -1.20155037	      0.00000000	      0.00000000	     -0.00000000	      0.00000000	     -0.00000000	     71.06654302	     -9.21513131	      6.29066337	     37.74446336	     26.07700270	      0.00000000	      5.24847987	     74.41798774	     -8.95978812	     13.21848040	     33.22719556	     35.54060960	      0.00000000	      5.24847987
      0.06700000	    -53.01834352	      0.21879909	      1.26966844	     -0.37280860	      0.99003653	      0.02555130	     96.36158912	     -9.22999149	     -2.96462552	     68.78866983	      1.20058878	     -3.21658120	     -5.69651939	      0.00000000	    135.86473823	     -6.44223093	      1.30563574	     96.72561829	      1.68818051	      3.85373476	      1.25391696	      0.00000000	     -0.08905961	     -0.01459207	     -0.14058884	     -0.16539261	     -0.01940745	     -0.14937564	     -0.14631604	     -0.03547916	     -0.14937564	     -0.10178623	     -0.03547916	     -0.12301523	     -0.08270076	     -0.02975615	     -0.11422843	     -0.05088866	     -0.02260312	     -0.10544163	     -0.63614392	     -0.16506841	     -0.78191293	      0.00000000	      0.00000000	     -0.00000000	      0.00000000	     -0.00000000	     71.16020281	     -9.27505125	      6.27487878	     37.75681967	     26.41700462	      0.00000000	      5.23947010	     74.40699961	     -8.86151234	     13.13586789	     33.31364789	     35.70731517	      0.00000000	      5.23947010
      0.07500000	    -53.00085096	     -0.04130398	      1.16661163	     -0.37313310	      0.98967353	      0.02578776	     97.09312238	     -9.20672661	     -3.17838293	     70.88933121	      1.23725223	     -3.62942078	     -7.14736914	      0.00000000	    135.11111321	     -6.36785256	      1.32847282	     94.94203144	      1.65705105	      3.87208101	      0.70687525	      0.00000000	     -0.08878934	      0.01797049	     -0.12484591	     -0.16489068	      0.02390076	     -0.13264878	     -0.14587200	      0.04369346	     -0.13264878	     -0.10147733	      0.04369346	     -0.10924017	     -0.08244978	      0.03664543	     -0.10143730	     -0.05073423	      0.02783630	     -0.09363443	     -0.63421335	      0.20328583	     -0.69435550	      0.00000000	      0.00000000	     -0.00000000	      0.00000000	     -0.00000000	     71.36461862	     -9.33035621	      6.72974712	     37.49359764	     26.59914093	      0.00000000	      5.21618441	     74.39354141	     -8.66183218	     12.49844806	     33.13682542	     35.64642627	      0.00000000	      5.21618441
      0.08300000	    -52.97279379	     -0.31800846	      0.67370446	     -0.37321392	      0.98922843	      0.02655657	     97.77796127	     -8.76262089	     -3.22814614	     72.94732570	      1.27317101	     -3.22084676	     -7.18183448	      0.00000000	    134.41230733	     -6.57723182	      1.72844706	     93.28862251	      1.62819362	      3.86759961	      0.62221060	      0.00000000	     -0.08909313	      0.05307934	     -0.03119444	     -0.16545485	      0.07059553	     -0.03314409	     -0.14637110	      0.12905711	     -0.03314409	     -0.10182454	      0.12905711	     -0.02729513	     -0.08273188	      0.10823940	     -0.02534548	     -0.05090781	      0.08221990	     -0.02339583	     -0.63638332	      0.60044414	     -0.17349410	      0.00000000	      0.00000000	     -0.00000000	      0.00000000	     -0.00000000	     71.41150807	     -9.37614138	      6.70036229	     37.55955015	     26.90088684	      0.00000000	      5.20880380	     74.27629005	     -8.58568623	     12.43366520	     33.34118495	     35.79889631	      0.00000000	      5.20880380
